<!-- https://growthhackers.com/welcome -->
<svg xmlns="http://www.w3.org/2000/svg" viewBox="0 0 851 497.38">
    <title>Van</title>
    <g style="opacity:0.30000001192092896">
        <path d="M33.3,497.38H823.6a26.8,26.8,0,0,0,26.8-26.8h0a26.8,26.8,0,0,0-26.8-26.8H33.3a26.8,26.8,0,0,0-26.8,26.8h0A26.74,26.74,0,0,0,33.3,497.38Z" style="fill:#8b9598"></path>
    </g>
    <polyline points="808.4 408.58 808.1 400.78 803.5 300.98 793.2 233.58 54 234.08 53.1 410.28 114.4 410.28 142.6 345.78 196.6 333.08 245.5 333.78 275.3 402.08 278.3 410.28 555 410.28 572.2 364.78 603 334.38 684.6 331.78 704.5 363.48 723.6 408.58" style="fill:#12ac8e"></polyline>
    <polygon points="812.6 233.58 821.1 242.18 821.1 261.88 812.6 270.58 802.2 270.58 793.2 233.58 812.6 233.58" style="fill:#f9f387"></polygon>
    <polygon points="793.2 233.58 743.3 137.38 696.4 101.08 346.9 95.48 164.1 95.48 117.6 99.58 85.9 117.78 63.2 152.08 50.8 197.48 54 234.08 793.2 233.58" style="fill:#e7ecec"></polygon>
    <path d="M733.1,192l-25.7-38.1a34.52,34.52,0,0,0-28.8-15.3H578.5a6.91,6.91,0,0,0-6.9,6.9v46.3a6.91,6.91,0,0,0,6.9,6.9l151.6,0.8A4.32,4.32,0,0,0,733.1,192Z" style="fill:#52e1dd"></path>
    <path d="M730.2,206.78h0L578.6,206a14.25,14.25,0,0,1-14.2-14.2v-46.2a14.19,14.19,0,0,1,14.2-14.2H678.7a41.65,41.65,0,0,1,34.7,18.5l25.3,37.6a11.64,11.64,0,0,1,2.2,12.1A11.36,11.36,0,0,1,730.2,206.78ZM579,191.38l145.3,0.8-23-34.2a27.27,27.27,0,0,0-22.6-12H578.9v45.4H579Z" style="fill:#53595b"></path>
    <path d="M534.2,145.58v47a6.91,6.91,0,0,1-6.9,6.9H455.7a6.91,6.91,0,0,1-6.9-6.9v-47a6.91,6.91,0,0,1,6.9-6.9h71.6A6.85,6.85,0,0,1,534.2,145.58Z" style="fill:#52e1dd"></path>
    <path d="M527.3,206.78H455.7a14.19,14.19,0,0,1-14.2-14.2v-47a14.19,14.19,0,0,1,14.2-14.2h71.6a14.19,14.19,0,0,1,14.2,14.2v47A14.25,14.25,0,0,1,527.3,206.78Zm-71.2-14.6h70.8V146H456.1v46.2Z" style="fill:#53595b"></path>
    <path d="M410.8,145.58v47a6.91,6.91,0,0,1-6.9,6.9H332.3a6.91,6.91,0,0,1-6.9-6.9v-47a6.91,6.91,0,0,1,6.9-6.9h71.6A6.85,6.85,0,0,1,410.8,145.58Z" style="fill:#52e1dd"></path>
    <path d="M403.9,206.78H332.3a14.19,14.19,0,0,1-14.2-14.2v-47a14.19,14.19,0,0,1,14.2-14.2h71.6a14.19,14.19,0,0,1,14.2,14.2v47A14.25,14.25,0,0,1,403.9,206.78Zm-71.2-14.6h70.7V146H332.6v46.2h0.1Z" style="fill:#53595b"></path>
    <path d="M288.2,145.58v47a6.91,6.91,0,0,1-6.9,6.9H209.7a6.91,6.91,0,0,1-6.9-6.9v-47a6.91,6.91,0,0,1,6.9-6.9h71.6A6.85,6.85,0,0,1,288.2,145.58Z" style="fill:#52e1dd"></path>
    <path d="M281.3,206.78H209.7a14.19,14.19,0,0,1-14.2-14.2v-47a14.19,14.19,0,0,1,14.2-14.2h71.6a14.19,14.19,0,0,1,14.2,14.2v47A14.13,14.13,0,0,1,281.3,206.78Zm-71.2-14.6h70.8V146H210.1v46.2Z" style="fill:#53595b"></path>
    <path d="M29.1,291.18h0a21.68,21.68,0,0,0,21.7-21.7v-71.9a21.68,21.68,0,0,0-21.7-21.7h0a21.68,21.68,0,0,0-21.7,21.7v71.9A21.74,21.74,0,0,0,29.1,291.18Z" style="fill:#8b9598"></path>
    <path d="M29.1,298.48A29.13,29.13,0,0,1,0,269.38v-71.9a29.1,29.1,0,1,1,58.2,0v71.9A29.19,29.19,0,0,1,29.1,298.48Zm0-115.3a14.47,14.47,0,0,0-14.4,14.4v71.9a14.4,14.4,0,0,0,28.8,0v-71.9A14.4,14.4,0,0,0,29.1,183.18Z" style="fill:#53595b"></path>
    <path d="M252.2,99.58H238.7V83.38c0-11.7,10.8-21.3,24-21.3H554.4c13.2,0,24,9.5,24,21.3v12.7H564.9V83.38c0-4.2-4.8-7.8-10.5-7.8H262.8c-5.7,0-10.5,3.6-10.5,7.8v16.2h-0.1Z" style="fill:#53595b"></path>
    <path d="M640.2,51.38" style="fill:none;stroke:#272d2f;stroke-miterlimit:10;stroke-width:14.67020034790039px"></path>
    <path d="M170.9,46.18c66-7.7,151.2-11.9,239.9-11.9,86.6,0,170.2,4.1,235.5,11.4a7.62,7.62,0,0,1,6.8,7.7,7.81,7.81,0,0,1-8.6,7.7c-64.7-7.3-147.7-11.3-233.7-11.3-88.1,0-172.7,4.2-238.1,11.8-0.3,0-.6.1-0.9,0.1a7.77,7.77,0,0,1-7.7-7.7A7.88,7.88,0,0,1,170.9,46.18Z" style="fill:#53595b"></path>
    <polyline points="252.6 39.08 241.8 21.18 214.7 10.58 200.3 9.08 205.6 24.08 206.6 39.08 204.1 46.88 253 40.68" style="fill:#eca32e"></polyline>
    <path d="M204.1,54.28a6.72,6.72,0,0,1-2.4-.4,7.33,7.33,0,0,1-4.5-9.3,16.82,16.82,0,0,1,1.5-3c1.6-2.5,3.9-6.4,1.6-14.2-2.6-8.7-9.2-10.5-10.3-10.7a7.11,7.11,0,0,1-6.1-5.8,7.38,7.38,0,0,1,3.7-7.8c1.6-.9,16.5-8.6,43.3,4.4,10.4,5,18.6,11.9,24,20a36,36,0,0,1,5.3,12l-14.4,2.6v0.1c-0.1-.5-2.9-12.6-21.2-21.5a66,66,0,0,0-13.4-4.9,31.18,31.18,0,0,1,3.2,7.4c4.1,14-1,22.4-3.2,26-0.1.2-.3,0.4-0.4,0.6A7.3,7.3,0,0,1,204.1,54.28Z" style="fill:#53595b"></path>
    <polygon points="714.9 399.08 564.5 399.08 581.1 350.88 603 334.38 675.9 334.98 696.4 353.88 714.9 399.08" style="fill:#53595b"></polygon>
    <polygon points="270.5 399.08 120.1 399.08 136.7 350.88 158.6 334.38 231.5 334.98 252 353.88 270.5 399.08" style="fill:#53595b"></polygon>
    <rect x="484.3" y="46.88" width="13.5" height="22" style="fill:#53595b"></rect>
    <rect x="321.2" y="46.88" width="13.5" height="22" style="fill:#53595b"></rect>
    <path d="M28.2,289.38h0a21.68,21.68,0,0,0,21.7-21.7l0.9-41.4H7.4l-0.9,41.4A21.68,21.68,0,0,0,28.2,289.38Z" style="fill:#53595b"></path>
    <polygon points="808.4 366.68 840.5 367.08 841.9 394.68 807.7 408.58 808.4 366.68" style="fill:#adb6b9"></polygon>
    <circle cx="640.2" cy="411.08" r="54" style="fill:#8b9598"></circle>
    <path d="M640.2,472.38A61.4,61.4,0,1,1,701.6,411,61.48,61.48,0,0,1,640.2,472.38Zm0-108a46.7,46.7,0,1,0,46.7,46.7A46.75,46.75,0,0,0,640.2,364.38Z" style="fill:#53595b"></path>
    <circle cx="640.2" cy="410.98" r="25.9" style="fill:#fff"></circle>
    <path d="M640.2,444.28A33.3,33.3,0,1,1,673.5,411,33.29,33.29,0,0,1,640.2,444.28Zm0-51.9A18.6,18.6,0,1,0,658.8,411,18.56,18.56,0,0,0,640.2,392.38Z" style="fill:#53595b"></path>
    <circle cx="196.6" cy="411.08" r="54" style="fill:#8b9598"></circle>
    <path d="M196.6,472.38A61.4,61.4,0,1,1,258,411,61.48,61.48,0,0,1,196.6,472.38Zm0-108a46.7,46.7,0,1,0,46.7,46.7A46.75,46.75,0,0,0,196.6,364.38Z" style="fill:#53595b"></path>
    <circle cx="196.7" cy="410.98" r="25.9" style="fill:#fff"></circle>
    <path d="M196.7,444.28A33.3,33.3,0,1,1,230,411,33.29,33.29,0,0,1,196.7,444.28Zm0-51.9A18.6,18.6,0,1,0,215.3,411,18.56,18.56,0,0,0,196.7,392.38Z" style="fill:#53595b"></path>
    <path d="M817.7,416h-9.2v-14.7h9.2a18.63,18.63,0,0,0,18.6-18.6v-6.6a1.32,1.32,0,0,0-1.3-1.3H806.7v-14.7H835a16,16,0,0,1,16,16v6.6A33.42,33.42,0,0,1,817.7,416Z" style="fill:#53595b"></path>
    <polygon points="47.6 368.78 15.5 369.18 14 396.78 48.3 410.78 47.6 368.78" style="fill:#adb6b9"></polygon>
    <path d="M48.7,417.68H39.4a33.25,33.25,0,0,1-33.2-33.2v-6.6A15.88,15.88,0,0,1,22.1,362H50.4v14.6H22.1a1.32,1.32,0,0,0-1.3,1.3v6.6a18.56,18.56,0,0,0,18.6,18.6h9.2v14.6h0.1Z" style="fill:#53595b"></path>
    <circle cx="503.8" cy="365.48" r="12" style="fill:#52e1dd"></circle>
    <circle cx="564.5" cy="304.88" r="12" style="fill:#c5ff4a"></circle>
    <circle cx="534.2" cy="335.18" r="12" style="fill:#71ff71"></circle>
    <g style="opacity:0.5">
        <path d="M552.5,304.88v36.4h0v24.3a12,12,0,1,0,24,0v-60.7h-24Z" style="fill:#c5ff4a"></path>
    </g>
    <g style="opacity:0.5">
        <path d="M522.1,335.18v18.3h0v12a12,12,0,0,0,24,0v-12h0v-18.3h-24Z" style="fill:#71ff71"></path>
    </g>
    <path d="M552,417.58H281.3a11.7,11.7,0,0,1-10.9-7.5l-16.3-42.9-0.1-.3a35.94,35.94,0,0,0-34.5-26.3H173.2a35.77,35.77,0,0,0-34.5,26.3l-0.2.7-16.1,42.6a11.7,11.7,0,0,1-10.9,7.5H45.8l0.1-203.6c0-49.8,13.9-85.7,41.4-106.9,22.2-17.1,46.9-18.9,56.5-18.9,2.2,0,3.7.1,4.4,0.1H664.9a102,102,0,0,1,84.7,45l11.5,17.1A292.81,292.81,0,0,1,811,300.78l5.3,115.3H726.7A11.57,11.57,0,0,1,716,409l-18.2-42.8-0.1-.4a35.61,35.61,0,0,0-34.2-25.3H614.1a35.74,35.74,0,0,0-34.5,26.4l-0.2.7-16.1,42.7A12.83,12.83,0,0,1,552,417.58Zm-268.6-14.7H549.9l15.3-40.4a50.55,50.55,0,0,1,48.6-36.8h49.4A50.14,50.14,0,0,1,711.3,361l17.1,40.3h72.3l-4.6-100a277.15,277.15,0,0,0-47.3-142.7l-11.5-17.1A87.43,87.43,0,0,0,664.8,103H147s-1.2-.1-3.4-0.1c-19.5,0-83.2,8-83.2,111.1l-0.1,188.9h48.9l15.3-40.4a50.55,50.55,0,0,1,48.6-36.8h46.3a50.55,50.55,0,0,1,48.6,36.8Z" style="fill:#53595b"></path>
    <path d="M812.6,277.88H802.2v-14.6h10.4a1.24,1.24,0,0,0,1.2-1.3v-19.7a1.31,1.31,0,0,0-1.2-1.3H793.2l-739.2.5v-14.6l739.2-.5h19.4a15.86,15.86,0,0,1,15.8,15.9V262A15.92,15.92,0,0,1,812.6,277.88Z" style="fill:#53595b"></path>
    <g style="opacity:0.23999999463558197">
        <polygon points="792.1 265.78 60.5 265.78 60.5 241.28 786.4 240.98 792.1 265.78" style="fill:#e7ecec"></polygon>
    </g>
    <g style="opacity:0.5">
        <path d="M209.9,424.28a18.41,18.41,0,0,0,0-25.9L184,424.28A18.23,18.23,0,0,0,209.9,424.28Z" style="fill:#adb6b9"></path>
    </g>
    <rect x="210.2" y="146.08" width="70.5" height="11.5" style="fill:#26b8bc"></rect>
    <rect x="332.8" y="146.08" width="70.5" height="11.5" style="fill:#26b8bc"></rect>
    <rect x="456.2" y="146.08" width="70.5" height="11.5" style="fill:#26b8bc"></rect>
    <path d="M579.1,146.08v11.5H700.6s-2.7-5.3-10.2-8.6-9.9-2.8-9.9-2.8H579.1v-0.1Z" style="fill:#26b8bc"></path>
    <polygon points="700.6 156.68 724.3 191.88 709 191.88 682.4 153.88 695.5 153.08 700.6 156.68" style="fill:#26b8bc"></polygon>
    <path d="M690.4,216.28h-2.2a3.58,3.58,0,0,1-3.6-3.6v-28.3a3.58,3.58,0,0,1,3.6-3.6h2.2a17.84,17.84,0,0,1,17.8,17.8h0A17.75,17.75,0,0,1,690.4,216.28Z" style="fill:#e7ecec"></path>
    <path d="M690.4,223.68h-2.2a11,11,0,0,1-11-11v-28.3a11,11,0,0,1,11-11h2.2A25.15,25.15,0,0,1,690.4,223.68Zm1.5-35.5v20.7A10.47,10.47,0,0,0,691.9,188.18Z" style="fill:#53595b"></path>
    <path d="M680,157.58s2.8,0,4.1.8A30.58,30.58,0,0,1,688,162v-9.3l-8.7,1.1Z" style="fill:#26b8bc"></path>
    <path d="M36.4,271h16v-37.1h-16a9.6,9.6,0,0,0-9.6,9.6v17.8A9.62,9.62,0,0,0,36.4,271Z" style="fill:#dc6b6b"></path>
    <path d="M58.9,277.38H36.4a16,16,0,0,1-16-16v-17.8a16,16,0,0,1,16-16H58.9v49.8Zm-22.5-37.1a3.16,3.16,0,0,0-3.2,3.2v17.8a3.16,3.16,0,0,0,3.2,3.2H46v-24.3H36.4v0.1Z" style="fill:#53595b"></path>
    <g style="opacity:0.5">
        <path d="M653.3,424.08a18.41,18.41,0,0,0,0-25.9l-25.9,25.9A18.41,18.41,0,0,0,653.3,424.08Z" style="fill:#adb6b9"></path>
    </g>
</svg>
