<?xml version="1.0" standalone="no"?>
<!DOCTYPE svg PUBLIC "-//W3C//DTD SVG 20010904//EN"
 "http://www.w3.org/TR/2001/REC-SVG-20010904/DTD/svg10.dtd">
<svg version="1.0" xmlns="http://www.w3.org/2000/svg"
 width="297.000000pt" height="299.000000pt" viewBox="0 0 297.000000 299.000000"
 preserveAspectRatio="xMidYMid meet">
<metadata>
Created by potrace 1.13, written by Peter Selinger 2001-2015
</metadata>
<g transform="translate(0.000000,299.000000) scale(0.100000,-0.100000)"
fill="hsla(180, 100%, 25%, 1.0)" stroke="none">
<path d="M1042 2795 c-360 -106 -656 -196 -660 -199 -3 -4 3 -13 14 -20 10 -8
275 -219 589 -470 416 -333 577 -456 595 -456 34 1 1333 453 1336 465 5 15
-1167 869 -1196 871 -14 2 -319 -84 -678 -191z m600 74 c155 -33 234 -129 158
-193 -73 -61 -255 -38 -341 43 -46 45 -52 85 -16 118 41 39 111 50 199 32z
m-695 -234 c64 -19 126 -64 142 -104 12 -27 11 -34 -4 -57 -26 -41 -78 -57
-165 -52 -197 12 -314 154 -177 213 42 19 141 19 204 0z m1141 -67 c68 -25
122 -78 122 -118 0 -116 -280 -118 -381 -3 -97 112 71 190 259 121z m-812
-219 c68 -12 147 -52 175 -87 55 -70 -15 -142 -137 -142 -71 0 -169 36 -215
80 -34 32 -40 44 -37 71 3 37 37 67 89 79 48 11 58 11 125 -1z m1197 -69 c191
-72 150 -222 -55 -206 -122 9 -228 76 -228 143 0 84 142 116 283 63z m-779
-235 c107 -28 180 -97 161 -152 -34 -95 -264 -90 -367 8 -61 58 -50 116 27
144 52 19 107 18 179 0z"/>
<path d="M295 2508 c-2 -7 -70 -345 -151 -750 l-146 -737 37 -33 c311 -273
1112 -957 1120 -955 9 3 334 1473 335 1518 0 21 -83 92 -587 495 -322 258
-590 470 -595 472 -4 2 -10 -2 -13 -10z m150 -278 c58 -36 115 -152 115 -234
0 -134 -99 -200 -185 -124 -101 88 -129 294 -48 358 33 25 77 26 118 0z m724
-595 c44 -22 96 -89 114 -146 46 -142 -12 -279 -108 -255 -41 10 -101 72 -125
129 -34 78 -37 161 -8 217 21 42 56 70 86 70 7 0 26 -7 41 -15z m-456 -183
c65 -43 109 -141 108 -241 -1 -230 -225 -182 -271 58 -27 143 65 247 163 183z
m-451 -177 c24 -17 47 -46 69 -90 84 -171 0 -353 -127 -276 -71 43 -114 133
-114 238 0 134 78 192 172 128z m728 -617 c42 -29 87 -109 100 -177 24 -128
-38 -229 -126 -207 -41 11 -108 85 -128 142 -18 55 -21 165 -5 197 24 46 52
67 89 67 22 0 51 -9 70 -22z"/>
<path d="M2278 1782 c-372 -131 -679 -239 -682 -242 -8 -9 -339 -1531 -334
-1536 6 -5 1340 494 1352 506 6 7 268 1110 351 1483 4 15 3 27 -2 26 -4 0
-313 -107 -685 -237z m530 -38 c63 -71 -14 -235 -141 -298 -68 -34 -101 -33
-138 3 -22 22 -29 39 -29 68 0 76 76 190 153 230 76 39 118 38 155 -3z m-523
-590 c22 -9 45 -57 45 -96 -1 -108 -139 -248 -244 -248 -117 0 -113 167 8 278
68 63 137 86 191 66z m-528 -648 c24 -21 28 -32 27 -74 -1 -118 -126 -252
-234 -252 -52 0 -89 26 -91 63 -4 85 23 148 93 213 82 77 154 94 205 50z"/>
</g>
</svg>
